<svg width="200" height="200" viewBox="0 0 200 200" fill="none" xmlns="http://www.w3.org/2000/svg">
<circle cx="100" cy="100" r="100" fill="#333333"/>
<circle cx="100" cy="100" r="100" fill="#333333"/>
<circle cx="100" cy="100" r="93.5" stroke="white" stroke-width="3"/>
<path d="M65.2761 75.3183V70.7708C65.2761 70.4036 65.1083 70.0514 64.8097 69.7917C64.5111 69.532 64.1062 69.3861 63.6839 69.3861H60.4996C60.0773 69.3861 59.6723 69.532 59.3737 69.7917C59.0751 70.0514 58.9074 70.4036 58.9074 70.7708V75.3155C56.4877 75.8541 54.3041 77.0008 52.6295 78.6124C50.9548 80.224 49.8633 82.2291 49.4913 84.3771C49.455 84.5773 49.469 84.782 49.5322 84.9771C49.5955 85.1722 49.7066 85.3531 49.8579 85.5073C50.0092 85.6615 50.1971 85.7854 50.4086 85.8704C50.6202 85.9555 50.8504 85.9997 51.0835 86H73.1254C73.3585 85.9997 73.5887 85.9555 73.8003 85.8704C74.0118 85.7854 74.1997 85.6615 74.351 85.5073C74.5023 85.3531 74.6134 85.1722 74.6767 84.9771C74.74 84.782 74.7539 84.5773 74.7176 84.3771C74.3432 82.2268 73.2477 80.2203 71.5682 78.6089C69.8887 76.9975 67.7 75.8529 65.2761 75.3183ZM80.0482 64.6199L72.0873 50.7727C71.9563 50.5414 71.7536 50.3465 71.5022 50.21C71.2507 50.0735 70.9604 50.0008 70.6639 50H53.5195C53.2246 50.0005 52.9357 50.0723 52.6849 50.2072C52.4341 50.3422 52.2314 50.5351 52.0993 50.7644L44.1385 64.6116C44.0172 64.8221 43.9596 65.056 43.9712 65.2912C43.9828 65.5264 44.0631 65.7552 44.2046 65.9559C44.3461 66.1566 44.5442 66.3226 44.78 66.4382C45.0158 66.5538 45.2816 66.6152 45.5523 66.6167H71.6447V70.7708C71.6447 71.1381 71.8125 71.4903 72.111 71.75C72.4096 72.0097 72.8146 72.1556 73.2369 72.1556C73.6591 72.1556 74.0641 72.0097 74.3627 71.75C74.6613 71.4903 74.829 71.1381 74.829 70.7708V66.6167H78.6311C78.9008 66.615 79.1656 66.5538 79.4006 66.4388C79.6356 66.3239 79.8332 66.1588 79.9749 65.9593C80.1165 65.7597 80.1975 65.5321 80.2104 65.2978C80.2232 65.0635 80.1674 64.8303 80.0482 64.6199Z" fill="white"/>
<path d="M85.8756 88.6667H39.7002C38.2153 88.6667 37 90.2441 37 91.8038C37 93.3636 38.2153 94.9398 39.7002 94.9398H40.3524V101.214H85.2889V94.9398H85.8756C87.3616 94.9398 88.5758 93.3636 88.5758 91.8038C88.5758 90.2441 87.3616 88.6667 85.8756 88.6667ZM62.7879 98.1033C62.0422 98.1033 61.4383 97.3767 61.4383 96.482C61.4383 95.5873 62.0422 94.8607 62.7879 94.8607C63.5347 94.8607 64.1374 95.5873 64.1374 96.482C64.1374 97.3767 63.5347 98.1033 62.7879 98.1033ZM40.3524 113.761H85.2889V103.725H40.3524V113.761ZM62.7879 107.018C63.5347 107.018 64.1374 107.743 64.1374 108.638C64.1374 109.534 63.5347 110.259 62.7879 110.259C62.0422 110.259 61.4383 109.534 61.4383 108.638C61.4372 107.743 62.0422 107.018 62.7879 107.018ZM40.3524 122.416V129.712C40.3524 130.603 40.4481 131.333 41.1905 131.333H46.5888C47.3313 131.333 47.6676 130.603 47.6676 129.712V125.057H77.9737V129.712C77.9737 130.603 78.2445 131.333 78.9859 131.333H84.3852C85.1256 131.333 85.2878 130.603 85.2878 129.712V116.274H40.3524V122.416ZM62.7879 119.175C63.5347 119.175 64.1374 119.902 64.1374 120.795C64.1374 121.692 63.5347 122.415 62.7879 122.415C62.0422 122.415 61.4383 121.692 61.4383 120.795C61.4372 119.903 62.0422 119.175 62.7879 119.175Z" fill="white"/>
<path d="M164.823 94.1778C163.958 94.1925 163.099 94.3095 162.263 94.5263V76.5565C162.263 71.9886 160.397 67.6079 157.075 64.3779C153.753 61.1479 149.248 59.3334 144.55 59.3334H128.783C124.085 59.3334 119.58 61.1479 116.258 64.3779C112.936 67.6079 111.07 71.9886 111.07 76.5565V94.5263C110.234 94.3112 109.375 94.1942 108.51 94.1778C106.268 94.191 104.092 94.9196 102.316 96.2518C100.541 97.584 99.2648 99.446 98.6834 101.552C98.102 103.658 98.2477 105.891 99.0981 107.909C99.9486 109.926 101.457 111.617 103.391 112.72V131.511C103.391 132.171 103.661 132.804 104.141 133.271C104.621 133.738 105.272 134 105.951 134H167.383C168.061 134 168.713 133.738 169.193 133.271C169.673 132.804 169.942 132.171 169.942 131.511V112.72C171.876 111.617 173.385 109.926 174.235 107.909C175.086 105.891 175.231 103.658 174.65 101.552C174.068 99.446 172.792 97.584 171.017 96.2518C169.241 94.9196 167.065 94.191 164.823 94.1778ZM116.189 76.5565C116.196 73.3108 117.525 70.2 119.885 67.905C122.246 65.61 125.445 64.3177 128.783 64.3112H144.55C147.888 64.3177 151.088 65.61 153.448 67.905C155.808 70.2 157.137 73.3108 157.144 76.5565V97.5378C157.016 97.6872 156.939 97.8365 156.837 97.9609C156.661 98.1517 156.506 98.3603 156.376 98.5832C156.124 98.9076 155.909 99.2582 155.736 99.6285C155.61 99.845 155.499 100.07 155.403 100.3C155.232 100.706 155.086 101.122 154.968 101.545C154.968 101.744 154.968 101.943 154.789 102.167C154.61 102.391 154.789 102.789 154.789 103.113C153.187 102.158 151.345 101.649 149.465 101.644H123.868C122.058 101.685 120.292 102.192 118.749 103.113C118.749 102.789 118.749 102.466 118.749 102.167C118.749 101.868 118.416 101.644 118.365 101.644C118.243 101.231 118.098 100.823 117.93 100.425C117.93 100.176 117.699 99.952 117.597 99.728C117.495 99.504 117.213 99.056 117.008 98.7325L116.496 98.0605L116.189 97.5378V76.5565ZM154.584 111.6H118.749C118.749 110.28 119.288 109.014 120.248 108.08C121.208 107.147 122.511 106.622 123.868 106.622H149.465C150.823 106.622 152.125 107.147 153.085 108.08C154.045 109.014 154.584 110.28 154.584 111.6ZM106.821 108.812C105.694 108.415 104.746 107.645 104.142 106.637C103.539 105.63 103.319 104.448 103.52 103.298C103.721 102.149 104.331 101.104 105.243 100.347C106.155 99.5902 107.311 99.1684 108.51 99.1556C109.779 99.1588 111.001 99.62 111.94 100.45C112.471 100.915 112.895 101.483 113.186 102.118C113.477 102.752 113.628 103.439 113.63 104.133V129.022H108.51V111.152C108.51 110.641 108.348 110.142 108.045 109.723C107.743 109.304 107.316 108.986 106.821 108.812ZM118.749 116.578H154.584V129.022H118.749V116.578ZM166.512 108.812C166.018 108.986 165.59 109.304 165.288 109.723C164.985 110.142 164.823 110.641 164.823 111.152V129.022H159.704V104.133C159.704 102.813 160.243 101.547 161.203 100.614C162.163 99.68 163.465 99.1556 164.823 99.1556C166.022 99.1684 167.179 99.5902 168.091 100.347C169.003 101.104 169.612 102.149 169.813 103.298C170.015 104.448 169.794 105.63 169.191 106.637C168.588 107.645 167.64 108.415 166.512 108.812Z" fill="white"/>
<path d="M126.428 76.7556C127.107 76.7556 127.758 76.4934 128.238 76.0266C128.718 75.5599 128.988 74.9268 128.988 74.2667C128.983 73.9415 128.914 73.6202 128.783 73.3209C128.653 73.0193 128.471 72.7415 128.245 72.4996C127.996 72.2798 127.711 72.103 127.401 71.9769C126.934 71.7863 126.421 71.7343 125.924 71.8273C125.428 71.9203 124.97 72.1543 124.61 72.4996C124.384 72.7415 124.203 73.0193 124.073 73.3209C123.942 73.6202 123.872 73.9415 123.868 74.2667C123.868 74.9268 124.138 75.5599 124.618 76.0266C125.098 76.4934 125.749 76.7556 126.428 76.7556Z" fill="white"/>
<path d="M145.472 76.3323C145.615 76.4265 145.77 76.5019 145.933 76.5563C146.075 76.6454 146.23 76.7126 146.393 76.7555H146.905C147.414 76.7583 147.912 76.6139 148.335 76.3406C148.759 76.0674 149.089 75.6776 149.284 75.221C149.479 74.7644 149.53 74.2618 149.43 73.777C149.33 73.2923 149.084 72.8476 148.723 72.4995C148.485 72.2662 148.202 72.081 147.89 71.9547C147.578 71.8283 147.243 71.7632 146.905 71.7632C146.567 71.7632 146.233 71.8283 145.921 71.9547C145.609 72.081 145.326 72.2662 145.088 72.4995C144.862 72.7414 144.68 73.0192 144.55 73.3208C144.419 73.62 144.35 73.9413 144.346 74.2666C144.355 74.9255 144.62 75.5567 145.088 76.0337L145.472 76.3323Z" fill="white"/>
<path d="M136.667 86.7111C137.175 86.714 137.673 86.5696 138.097 86.2963C138.52 86.023 138.851 85.6332 139.046 85.1767C139.241 84.7201 139.291 84.2174 139.191 83.7327C139.091 83.248 138.845 82.8032 138.484 82.4551C138.002 81.9864 137.348 81.7231 136.667 81.7231C135.985 81.7231 135.331 81.9864 134.849 82.4551C134.367 82.9238 134.097 83.5594 134.097 84.2222C134.097 84.885 134.367 85.5207 134.849 85.9893C135.34 86.4441 135.989 86.7019 136.667 86.7111Z" fill="white"/>
<path d="M126.428 96.6666C127.02 96.6633 127.592 96.4605 128.048 96.0928C128.504 95.7252 128.814 95.2154 128.926 94.6502C129.039 94.085 128.946 93.4995 128.664 92.9932C128.383 92.4869 127.929 92.0913 127.381 91.8736C126.833 91.656 126.224 91.6298 125.659 91.7994C125.093 91.9691 124.605 92.3243 124.279 92.8043C123.952 93.2844 123.806 93.8597 123.867 94.4323C123.927 95.0049 124.19 95.5394 124.611 95.9448C125.101 96.3996 125.75 96.6574 126.428 96.6666Z" fill="white"/>
<path d="M146.906 96.6666C147.498 96.6633 148.07 96.4605 148.526 96.0928C148.981 95.7252 149.291 95.2154 149.404 94.6502C149.516 94.085 149.424 93.4995 149.142 92.9932C148.86 92.4869 148.407 92.0913 147.859 91.8736C147.311 91.656 146.702 91.6298 146.136 91.7994C145.57 91.9691 145.083 92.3243 144.756 92.8043C144.429 93.2844 144.284 93.8597 144.344 94.4323C144.405 95.0049 144.668 95.5394 145.088 95.9448C145.579 96.3996 146.228 96.6574 146.906 96.6666Z" fill="white"/>
</svg>
