<svg  viewBox="0 0 99 63" fill="none" xmlns="http://www.w3.org/2000/svg">
<path d="M20.285 18.9887V15.5781C20.285 15.3027 20.1646 15.0385 19.9504 14.8438C19.7362 14.649 19.4457 14.5396 19.1428 14.5396H16.8584C16.5554 14.5396 16.2649 14.649 16.0507 14.8438C15.8365 15.0385 15.7161 15.3027 15.7161 15.5781V18.9866C13.9803 19.3905 12.4138 20.2506 11.2124 21.4593C10.011 22.668 9.228 24.1718 8.96114 25.7828C8.93509 25.933 8.9451 26.0865 8.9905 26.2328C9.0359 26.3792 9.1156 26.5148 9.22413 26.6305C9.33266 26.7461 9.46744 26.839 9.61921 26.9028C9.77098 26.9666 9.93615 26.9998 10.1033 27H25.916C26.0833 26.9998 26.2484 26.9666 26.4002 26.9028C26.552 26.839 26.6867 26.7461 26.7953 26.6305C26.9038 26.5148 26.9835 26.3792 27.0289 26.2328C27.0743 26.0865 27.0843 25.933 27.0583 25.7828C26.7897 24.1701 26.0037 22.6652 24.7989 21.4567C23.5941 20.2481 22.0239 19.3896 20.285 18.9887ZM30.8824 10.9649L25.1713 0.579506C25.0773 0.406054 24.9319 0.259908 24.7515 0.157523C24.5711 0.0551389 24.3629 0.000583439 24.1502 0H11.8509C11.6394 0.000391366 11.4321 0.0541972 11.2522 0.155419C11.0723 0.256641 10.9269 0.401302 10.8321 0.573275L5.12105 10.9587C5.03404 11.1166 4.99274 11.292 5.00105 11.4684C5.00935 11.6448 5.06699 11.8164 5.16851 11.9669C5.27004 12.1174 5.4121 12.2419 5.58127 12.3287C5.75044 12.4154 5.94113 12.4614 6.13533 12.4625H24.8538V15.5781C24.8538 15.8536 24.9741 16.1177 25.1883 16.3125C25.4025 16.5072 25.6931 16.6167 25.996 16.6167C26.2989 16.6167 26.5895 16.5072 26.8037 16.3125C27.0179 16.1177 27.1382 15.8536 27.1382 15.5781V12.4625H29.8658C30.0593 12.4613 30.2492 12.4154 30.4178 12.3291C30.5864 12.2429 30.7282 12.1191 30.8298 11.9694C30.9314 11.8198 30.9895 11.6491 30.9987 11.4734C31.0079 11.2977 30.9679 11.1227 30.8824 10.9649Z" fill="#111827"/>
<path d="M35.0629 29H1.9371C0.871813 29 0 30.183 0 31.3529C0 32.5227 0.871813 33.7048 1.9371 33.7048H2.405V38.4105H34.642V33.7048H35.0629C36.129 33.7048 37 32.5227 37 31.3529C37 30.183 36.129 29 35.0629 29ZM18.5 36.0774C17.965 36.0774 17.5318 35.5325 17.5318 34.8615C17.5318 34.1904 17.965 33.6455 18.5 33.6455C19.0357 33.6455 19.4682 34.1904 19.4682 34.8615C19.4682 35.5325 19.0357 36.0774 18.5 36.0774ZM2.405 47.8211H34.642V40.2938H2.405V47.8211ZM18.5 42.7634C19.0357 42.7634 19.4682 43.3073 19.4682 43.9784C19.4682 44.6504 19.0357 45.1943 18.5 45.1943C17.965 45.1943 17.5318 44.6504 17.5318 43.9784C17.5311 43.3073 17.965 42.7634 18.5 42.7634ZM2.405 54.3122V59.784C2.405 60.4523 2.4736 61 3.00625 61H6.87892C7.41156 61 7.65283 60.4523 7.65283 59.784V56.2924H29.3942V59.784C29.3942 60.4523 29.5884 61 30.1203 61H33.9938C34.5249 61 34.6413 60.4523 34.6413 59.784V49.7053H2.405V54.3122ZM18.5 51.8812C19.0357 51.8812 19.4682 52.4261 19.4682 53.0962C19.4682 53.7692 19.0357 54.3113 18.5 54.3113C17.965 54.3113 17.5318 53.7692 17.5318 53.0962C17.5311 52.4271 17.965 51.8812 18.5 51.8812Z" fill="#111827"/>
<path d="M91.6991 33.1333C91.0789 33.1443 90.4622 33.2321 89.8628 33.3947V19.9173C89.8628 16.4914 88.5241 13.2059 86.141 10.7834C83.758 8.36093 80.5259 7 77.1558 7H65.8442C62.4741 7 59.242 8.36093 56.859 10.7834C54.4759 13.2059 53.1372 16.4914 53.1372 19.9173V33.3947C52.5375 33.2333 51.921 33.1456 51.3009 33.1333C49.6922 33.1432 48.1311 33.6897 46.8575 34.6888C45.584 35.6879 44.6683 37.0845 44.2512 38.6639C43.8341 40.2434 43.9386 41.9183 44.5487 43.4315C45.1588 44.9447 46.2407 46.2125 47.6283 47.04V61.1333C47.6283 61.6284 47.8218 62.1032 48.1661 62.4533C48.5105 62.8033 48.9776 63 49.4646 63H93.5354C94.0224 63 94.4895 62.8033 94.8339 62.4533C95.1782 62.1032 95.3717 61.6284 95.3717 61.1333V47.04C96.7593 46.2125 97.8412 44.9447 98.4513 43.4315C99.0614 41.9183 99.1659 40.2434 98.7488 38.6639C98.3317 37.0845 97.416 35.6879 96.1425 34.6888C94.8689 33.6897 93.3078 33.1432 91.6991 33.1333ZM56.8097 19.9173C56.8146 17.4831 57.768 15.15 59.4612 13.4287C61.1545 11.7074 63.4496 10.7383 65.8442 10.7333H77.1558C79.5504 10.7383 81.8455 11.7074 83.5388 13.4287C85.232 15.15 86.1854 17.4831 86.1903 19.9173V35.6533C86.0985 35.7653 86.0434 35.8773 85.9699 35.9707C85.8436 36.1138 85.7328 36.2702 85.6394 36.4373C85.4584 36.6807 85.3045 36.9436 85.1803 37.2213C85.0898 37.3837 85.01 37.5521 84.9416 37.7253C84.8184 38.0295 84.7141 38.3412 84.6294 38.6587C84.6294 38.808 84.6294 38.9573 84.5009 39.1253C84.3724 39.2933 84.5009 39.592 84.5009 39.8347C83.3513 39.1181 82.0299 38.7371 80.6814 38.7333H62.3186C61.0201 38.7639 59.7529 39.1439 58.646 39.8347C58.646 39.592 58.646 39.3493 58.646 39.1253C58.646 38.9013 58.4073 38.7333 58.3706 38.7333C58.283 38.4229 58.1788 38.1175 58.0584 37.8187C58.0584 37.632 57.8931 37.464 57.8197 37.296C57.7462 37.128 57.5442 36.792 57.3973 36.5493L57.0301 36.0453L56.8097 35.6533V19.9173ZM84.354 46.2H58.646C58.646 45.2099 59.0329 44.2603 59.7217 43.5601C60.4104 42.86 61.3446 42.4667 62.3186 42.4667H80.6814C81.6554 42.4667 82.5896 42.86 83.2783 43.5601C83.9671 44.2603 84.354 45.2099 84.354 46.2ZM50.0889 44.1093C49.2802 43.8111 48.6001 43.2337 48.1673 42.4779C47.7345 41.7221 47.5765 40.8359 47.7207 39.9737C47.865 39.1116 48.3024 38.3283 48.9567 37.7604C49.611 37.1926 50.4406 36.8763 51.3009 36.8667C52.2111 36.8691 53.088 37.215 53.7615 37.8373C54.1419 38.1864 54.4463 38.6125 54.655 39.0883C54.8638 39.5641 54.9722 40.079 54.9734 40.6V59.2667H51.3009V45.864C51.3007 45.4804 51.1843 45.1061 50.9674 44.7921C50.7506 44.4782 50.4438 44.2398 50.0889 44.1093ZM58.646 49.9333H84.354V59.2667H58.646V49.9333ZM92.9111 44.1093C92.5562 44.2398 92.2494 44.4782 92.0326 44.7921C91.8157 45.1061 91.6993 45.4804 91.6991 45.864V59.2667H88.0266V40.6C88.0266 39.6099 88.4135 38.6603 89.1022 37.9601C89.791 37.26 90.7251 36.8667 91.6991 36.8667C92.5594 36.8763 93.389 37.1926 94.0433 37.7604C94.6976 38.3283 95.135 39.1116 95.2793 39.9737C95.4235 40.8359 95.2655 41.7221 94.8327 42.4779C94.3999 43.2337 93.7198 43.8111 92.9111 44.1093Z" fill="#111827"/>
<path d="M64.1549 20.0667C64.6419 20.0667 65.109 19.8701 65.4533 19.52C65.7977 19.1699 65.9912 18.6951 65.9912 18.2001C65.9883 17.9561 65.9384 17.7152 65.8443 17.4907C65.7513 17.2645 65.6208 17.0562 65.4586 16.8747C65.2802 16.7099 65.0752 16.5773 64.8527 16.4827C64.5183 16.3398 64.1497 16.3007 63.7935 16.3705C63.4373 16.4403 63.1094 16.6157 62.8511 16.8747C62.6889 17.0562 62.5585 17.2645 62.4655 17.4907C62.3714 17.7152 62.3215 17.9561 62.3186 18.2001C62.3186 18.6951 62.5121 19.1699 62.8564 19.52C63.2008 19.8701 63.6679 20.0667 64.1549 20.0667Z" fill="#111827"/>
<path d="M77.8168 19.7493C77.9191 19.82 78.0303 19.8765 78.1473 19.9173C78.2492 19.9842 78.3607 20.0345 78.4778 20.0667H78.8451C79.2098 20.0688 79.5669 19.9605 79.8708 19.7556C80.1748 19.5506 80.4118 19.2583 80.5517 18.9158C80.6915 18.5734 80.7279 18.1964 80.6562 17.8329C80.5844 17.4693 80.4078 17.1358 80.1488 16.8747C79.9781 16.6997 79.775 16.5608 79.5513 16.4661C79.3275 16.3713 79.0875 16.3225 78.8451 16.3225C78.6027 16.3225 78.3626 16.3713 78.1389 16.4661C77.9151 16.5608 77.712 16.6997 77.5413 16.8747C77.3791 17.0561 77.2487 17.2645 77.1557 17.4907C77.0616 17.7151 77.0117 17.9561 77.0088 18.2C77.0156 18.6942 77.2058 19.1676 77.5413 19.5253L77.8168 19.7493Z" fill="#111827"/>
<path d="M71.5 27.5333C71.8648 27.5355 72.2219 27.4272 72.5258 27.2222C72.8298 27.0173 73.0668 26.7249 73.2066 26.3825C73.3465 26.0401 73.3829 25.6631 73.3111 25.2995C73.2394 24.936 73.0628 24.6024 72.8038 24.3413C72.458 23.9898 71.9891 23.7924 71.5 23.7924C71.011 23.7924 70.5421 23.9898 70.1963 24.3413C69.8505 24.6928 69.6563 25.1696 69.6562 25.6667C69.6562 26.1638 69.8505 26.6405 70.1963 26.992C70.5482 27.3331 71.0139 27.5265 71.5 27.5333Z" fill="#111827"/>
<path d="M64.155 35C64.5797 34.9975 64.9904 34.8454 65.3172 34.5697C65.644 34.2939 65.8667 33.9116 65.9473 33.4877C66.0279 33.0638 65.9615 32.6246 65.7594 32.2449C65.5573 31.8652 65.2319 31.5685 64.8387 31.4053C64.4456 31.242 64.0089 31.2223 63.6031 31.3496C63.1972 31.4769 62.8474 31.7432 62.613 32.1033C62.3786 32.4633 62.2743 32.8948 62.3177 33.3243C62.3612 33.7537 62.5497 34.1546 62.8512 34.4586C63.2031 34.7997 63.6688 34.9931 64.155 35Z" fill="#111827"/>
<path d="M78.8452 35C79.2699 34.9975 79.6806 34.8454 80.0074 34.5697C80.3342 34.2939 80.5568 33.9116 80.6375 33.4877C80.7181 33.0638 80.6517 32.6246 80.4496 32.2449C80.2474 31.8652 79.9221 31.5685 79.5289 31.4053C79.1358 31.242 78.6991 31.2223 78.2933 31.3496C77.8874 31.4769 77.5375 31.7432 77.3032 32.1033C77.0688 32.4633 76.9645 32.8948 77.0079 33.3243C77.0514 33.7537 77.2399 34.1546 77.5414 34.4586C77.8933 34.7997 78.359 34.9931 78.8452 35Z" fill="#111827"/>
</svg>
