<svg xmlns="http://www.w3.org/2000/svg" height="48" viewBox="0 -960 960 960" width="48"><path d="M265.863-132q-22.107 0-37.985-15.878T212-185.772v-428.456q0-22.016 15.878-37.894T266.084-668H349.5v-29q0-55 38.084-93t92.75-38q54.666 0 93.024 38 38.358 38 38.358 93v29h82.385q22.143 0 38.021 15.878T748-614.228v428.456q0 22.016-15.878 37.894T694.137-132H265.863Zm.137-22h428q12 0 22-10t10-22v-428q0-12-10-22t-22-10h-82.5v108.5q0 5.225-3.193 8.362-3.193 3.138-8.5 3.138T592-529.138q-2.5-3.137-2.5-8.362V-646h-218v108.5q0 5.225-3.193 8.362-3.193 3.138-8.5 3.138T352-529.138q-2.5-3.137-2.5-8.362V-646H266q-12 0-22 10t-10 22v428q0 12 10 22t22 10Zm105.5-514h218v-29q0-46-31.604-77.5t-77.75-31.5Q434-806 402.75-774.5T371.5-697v29ZM234-154v-492 492Z"/></svg>