<svg xmlns="http://www.w3.org/2000/svg" height="48" viewBox="0 -960 960 960" width="48"><path d="M223-116q-27.5 0-47.25-19.75T156-183v-427q0-27.5 19.75-47.25T223-677h98q0-67 45.556-113 45.555-46 111.81-46 66.254 0 113.444 46.142Q639-743.715 639-677h98q27.5 0 47.25 19.75T804-610v427q0 27.5-19.75 47.25T737-116H223Zm256.866-323q66.754 0 113.944-47.095T641-600h-35q0 53-37.444 89.5-37.443 36.5-88.791 36.5t-88.057-36.792Q355-547.583 355-600h-35q0 67 46.556 114 46.555 47 113.31 47ZM356-677h248q0-52-36.326-88t-87.792-36q-51.465 0-87.674 36.292Q356-728.417 356-677Z"/></svg>